{
	"asset":{
		"generator":"Khronos glTF Blender I/O v5.0.21",
		"version":"2.0"
	},
	"extensionsUsed":[
		"KHR_materials_specular"
	],
	"scene":0,
	"scenes":[
		{
			"name":"Scene",
			"nodes":[
				0
			]
		}
	],
	"nodes":[
		{
			"mesh":0,
			"name":"agios_bhssarionas_mnhmeio_Model_4_simplified",
			"rotation":[
				0.19888678193092346,
				-0.41314035654067993,
				-0.15634596347808838,
				0.8748228549957275
			],
			"translation":[
				0,
				3.6508469581604004,
				0
			]
		}
	],
	"materials":[
		{
			"doubleSided":true,
			"extensions":{
				"KHR_materials_specular":{
					"specularFactor":0
				}
			},
			"name":"agios_bhssarionas_mnhmeio_Model_4_simplified_u1_v1",
			"pbrMetallicRoughness":{
				"baseColorTexture":{
					"index":0
				},
				"metallicFactor":0
			}
		}
	],
	"meshes":[
		{
			"name":"agios_bhssarionas_mnhmeio_Model_4_simplified",
			"primitives":[
				{
					"attributes":{
						"POSITION":0,
						"NORMAL":1,
						"TEXCOORD_0":2,
						"COLOR_0":3,
						"COLOR_1":4
					},
					"indices":5,
					"material":0
				}
			]
		}
	],
	"textures":[
		{
			"sampler":0,
			"source":0
		}
	],
	"images":[
		{
			"mimeType":"image/png",
			"name":"agios_bhssarionas_mnhmeio_Model_4_simplified_u1_v1_diffuse",
			"uri":"agios_bhssarionas_mnhmeio_Model_4_simplified_u1_v1_diffuse.png"
		}
	],
	"accessors":[
		{
			"bufferView":0,
			"componentType":5126,
			"count":1158682,
			"max":[
				6.457921981811523,
				0.7777547836303711,
				3.784209728240967
			],
			"min":[
				-2.3775007724761963,
				-6.075215816497803,
				-5.53530740737915
			],
			"type":"VEC3"
		},
		{
			"bufferView":1,
			"componentType":5126,
			"count":1158682,
			"type":"VEC3"
		},
		{
			"bufferView":2,
			"componentType":5126,
			"count":1158682,
			"type":"VEC2"
		},
		{
			"bufferView":3,
			"componentType":5126,
			"count":1158682,
			"type":"VEC3"
		},
		{
			"bufferView":4,
			"componentType":5123,
			"count":1158682,
			"normalized":true,
			"type":"VEC4"
		},
		{
			"bufferView":5,
			"componentType":5125,
			"count":1158786,
			"type":"SCALAR"
		}
	],
	"bufferViews":[
		{
			"buffer":0,
			"byteLength":13904184,
			"byteOffset":0,
			"target":34962
		},
		{
			"buffer":0,
			"byteLength":13904184,
			"byteOffset":13904184,
			"target":34962
		},
		{
			"buffer":0,
			"byteLength":9269456,
			"byteOffset":27808368,
			"target":34962
		},
		{
			"buffer":0,
			"byteLength":13904184,
			"byteOffset":37077824,
			"target":34962
		},
		{
			"buffer":0,
			"byteLength":9269456,
			"byteOffset":50982008,
			"target":34962
		},
		{
			"buffer":0,
			"byteLength":4635144,
			"byteOffset":60251464,
			"target":34963
		}
	],
	"samplers":[
		{
			"magFilter":9729,
			"minFilter":9987
		}
	],
	"buffers":[
		{
			"byteLength":64886608,
			"uri":"Untitled.bin"
		}
	]
}
