{
	"asset":{
		"generator":"Khronos glTF Blender I/O v5.0.21",
		"version":"2.0"
	},
	"extensionsUsed":[
		"KHR_materials_specular"
	],
	"scene":0,
	"scenes":[
		{
			"name":"Scene",
			"nodes":[
				0
			]
		}
	],
	"nodes":[
		{
			"mesh":0,
			"name":"agios_bhssarionas_mnhmeio_Model_4_simplified"
		}
	],
	"materials":[
		{
			"doubleSided":true,
			"extensions":{
				"KHR_materials_specular":{
					"specularFactor":0
				}
			},
			"name":"agios_bhssarionas_mnhmeio_Model_4_simplified_u1_v1",
			"pbrMetallicRoughness":{
				"baseColorTexture":{
					"index":0
				},
				"metallicFactor":0
			}
		}
	],
	"meshes":[
		{
			"name":"agios_bhssarionas_mnhmeio_Model_4_simplified",
			"primitives":[
				{
					"attributes":{
						"POSITION":0,
						"NORMAL":1,
						"TEXCOORD_0":2,
						"COLOR_0":3,
						"COLOR_1":4
					},
					"indices":5,
					"material":0
				}
			]
		}
	],
	"textures":[
		{
			"sampler":0,
			"source":0
		}
	],
	"images":[
		{
			"mimeType":"image/png",
			"name":"agios_bhssarionas_mnhmeio_Model_4_simplified_u1_v1_diffuse",
			"uri":"agios_bhssarionas_mnhmeio_Model_4_simplified_u1_v1_diffuse.png"
		}
	],
	"accessors":[
		{
			"bufferView":0,
			"componentType":5126,
			"count":652321,
			"max":[
				2.2278990745544434,
				4.482575416564941,
				2.3452329635620117
			],
			"min":[
				-2.3620493412017822,
				-0.04382157325744629,
				-2.5746238231658936
			],
			"type":"VEC3"
		},
		{
			"bufferView":1,
			"componentType":5126,
			"count":652321,
			"type":"VEC3"
		},
		{
			"bufferView":2,
			"componentType":5126,
			"count":652321,
			"type":"VEC2"
		},
		{
			"bufferView":3,
			"componentType":5126,
			"count":652321,
			"type":"VEC3"
		},
		{
			"bufferView":4,
			"componentType":5123,
			"count":652321,
			"normalized":true,
			"type":"VEC4"
		},
		{
			"bufferView":5,
			"componentType":5125,
			"count":652389,
			"type":"SCALAR"
		}
	],
	"bufferViews":[
		{
			"buffer":0,
			"byteLength":7827852,
			"byteOffset":0,
			"target":34962
		},
		{
			"buffer":0,
			"byteLength":7827852,
			"byteOffset":7827852,
			"target":34962
		},
		{
			"buffer":0,
			"byteLength":5218568,
			"byteOffset":15655704,
			"target":34962
		},
		{
			"buffer":0,
			"byteLength":7827852,
			"byteOffset":20874272,
			"target":34962
		},
		{
			"buffer":0,
			"byteLength":5218568,
			"byteOffset":28702124,
			"target":34962
		},
		{
			"buffer":0,
			"byteLength":2609556,
			"byteOffset":33920692,
			"target":34963
		}
	],
	"samplers":[
		{
			"magFilter":9729,
			"minFilter":9987
		}
	],
	"buffers":[
		{
			"byteLength":36530248,
			"uri":"model.bin"
		}
	]
}
